<?xml version="1.0" encoding="UTF-8" standalone="no"?>
<svg
   xmlns:dc="http://purl.org/dc/elements/1.1/"
   xmlns:cc="http://creativecommons.org/ns#"
   xmlns:rdf="http://www.w3.org/1999/02/22-rdf-syntax-ns#"
   xmlns:svg="http://www.w3.org/2000/svg"
   xmlns="http://www.w3.org/2000/svg"
   viewBox="0 0 500 250"
   height="250"
   width="500"
   xml:space="preserve"
   version="1.1"
   id="svg2"><metadata
     id="metadata8"><rdf:RDF><cc:Work
         rdf:about=""><dc:format>image/svg+xml</dc:format><dc:type
           rdf:resource="http://purl.org/dc/dcmitype/StillImage" /></cc:Work></rdf:RDF></metadata><defs
     id="defs6"><clipPath
       id="clipPath16"
       clipPathUnits="userSpaceOnUse"><path
         id="path18"
         d="M 0,200 400,200 400,0 0,0 0,200 Z" /></clipPath></defs><g
     transform="matrix(1.25,0,0,-1.25,0,250)"
     id="g10"><g
       id="g12"><g
         clip-path="url(#clipPath16)"
         id="g14"><g
           transform="translate(64.5879,100.1143)"
           id="g20"><path
             id="path22"
             style="fill:#ed2790;fill-opacity:1;fill-rule:nonzero;stroke:none"
             d="m 0,0 c 0,10.754 8.711,19.469 19.465,19.469 2.363,0 4.617,-0.447 6.707,-1.215 C 22.961,30.117 16.719,38.152 9.551,38.152 -0.898,38.152 -9.375,21.074 -9.375,0 c 0,-21.078 8.477,-38.151 18.926,-38.151 7.168,0 13.41,8.043 16.621,19.897 -2.09,-0.768 -4.344,-1.211 -6.707,-1.211 C 8.711,-19.465 0,-10.754 0,0" /></g><g
           transform="translate(90.7598,118.3682)"
           id="g24"><path
             id="path26"
             style="fill:#ed2790;fill-opacity:1;fill-rule:nonzero;stroke:none"
             d="m 0,0 c 1.465,-5.422 2.305,-11.642 2.305,-18.254 0,-6.609 -0.84,-12.836 -2.305,-18.254 7.441,2.736 12.766,9.862 12.766,18.254 C 12.766,-9.863 7.441,-2.729 0,0" /></g><g
           transform="translate(31.7163,138.2666)"
           id="g28"><path
             id="path30"
             style="fill:#737577;fill-opacity:1;fill-rule:nonzero;stroke:none"
             d="m 0,0 c -7.168,0 -13.406,-8.035 -16.621,-19.897 2.09,0.768 4.348,1.212 6.711,1.212 10.75,0 19.461,-8.712 19.461,-19.466 0,-10.754 -8.711,-19.466 -19.461,-19.466 -2.363,0 -4.621,0.441 -6.711,1.212 3.215,-11.857 9.453,-19.901 16.621,-19.901 10.461,0 18.938,17.077 18.938,38.155 C 18.938,-17.078 10.461,0 0,0" /></g><g
           transform="translate(15.0952,118.3682)"
           id="g32"><path
             id="path34"
             style="fill:#737577;fill-opacity:1;fill-rule:nonzero;stroke:none"
             d="m 0,0 c -7.441,-2.729 -12.754,-9.863 -12.754,-18.254 0,-8.392 5.313,-15.518 12.754,-18.254 -1.465,5.418 -2.305,11.645 -2.305,18.254 0,6.612 0.84,12.832 2.305,18.254" /></g><g
           transform="translate(113.6538,74.002)"
           id="g36"><path
             id="path38"
             style="fill:#ed2790;fill-opacity:1;fill-rule:nonzero;stroke:none"
             d="m 0,0 0,-9.387 2.461,0 c 2.609,0 2.727,1.43 2.727,3.266 l 0,2.969 C 5.188,-1.695 4.895,0 1.516,0 L 0,0 Z m -0.039,9.051 0,-7.778 1.426,0 c 3.008,0 3.097,1.719 3.097,2.946 l 0,2.519 c 0,1.867 -0.714,2.313 -2.675,2.313 l -1.848,0 z m -1.414,1.281 3.769,0 c 1.297,0 3.622,0 3.622,-3.445 l 0,-3 c 0,-2.496 -1.192,-2.871 -2.5,-3.172 2.617,-0.391 3.214,-1.399 3.214,-3.891 l 0,-3.562 c 0,-1.895 -0.597,-3.926 -3.957,-3.926 l -4.148,0 0,20.996 z" /></g><g
           transform="translate(113.6538,74.002)"
           id="g40"><path
             id="path42"
             style="fill:none;stroke:#ed2790;stroke-width:0.5;stroke-linecap:butt;stroke-linejoin:miter;stroke-miterlimit:4;stroke-dasharray:none;stroke-opacity:1"
             d="m 0,0 0,-9.387 2.461,0 c 2.609,0 2.727,1.43 2.727,3.266 l 0,2.969 C 5.188,-1.695 4.895,0 1.516,0 L 0,0 Z m -0.039,9.051 0,-7.778 1.426,0 c 3.008,0 3.097,1.719 3.097,2.946 l 0,2.519 c 0,1.867 -0.714,2.313 -2.675,2.313 l -1.848,0 z m -1.414,1.281 3.769,0 c 1.297,0 3.622,0 3.622,-3.445 l 0,-3 c 0,-2.496 -1.192,-2.871 -2.5,-3.172 2.617,-0.391 3.214,-1.399 3.214,-3.891 l 0,-3.562 c 0,-1.895 -0.597,-3.926 -3.957,-3.926 l -4.148,0 0,20.996 z" /></g><g
           transform="translate(142.228,80.7988)"
           id="g44"><path
             id="path46"
             style="fill:#ed2790;fill-opacity:1;fill-rule:nonzero;stroke:none"
             d="M 0,0 C -0.059,0.301 -0.176,1.223 -0.293,1.992 -0.332,1.691 -0.359,1.426 -0.391,1.133 -0.449,0.832 -0.477,0.508 -0.535,0.18 l -1.719,-9.887 3.887,0 L 0,0 Z m 0.715,3.621 3.797,-21.082 -1.543,0 -1.074,6.391 -4.395,0 -1.094,-6.391 -1.543,0 3.828,21.082 2.024,0 z" /></g><g
           transform="translate(142.228,80.7988)"
           id="g48"><path
             id="path50"
             style="fill:none;stroke:#ed2790;stroke-width:0.5;stroke-linecap:butt;stroke-linejoin:miter;stroke-miterlimit:4;stroke-dasharray:none;stroke-opacity:1"
             d="M 0,0 C -0.059,0.301 -0.176,1.223 -0.293,1.992 -0.332,1.691 -0.359,1.426 -0.391,1.133 -0.449,0.832 -0.477,0.508 -0.535,0.18 l -1.719,-9.887 3.887,0 L 0,0 Z m 0.715,3.621 3.797,-21.082 -1.543,0 -1.074,6.391 -4.395,0 -1.094,-6.391 -1.543,0 3.828,21.082 2.024,0 z" /></g><g
           transform="translate(163.6152,79.459)"
           id="g52"><path
             id="path54"
             style="fill:#ed2790;fill-opacity:1;fill-rule:nonzero;stroke:none"
             d="M 0,0 C 0,1.613 0,2.797 1.104,3.863 1.965,4.816 3.059,5.051 4.16,5.051 4.992,5.051 5.819,4.875 6.504,4.465 7.16,4.074 8.137,3.234 8.137,1.012 l 0,-2.942 -1.457,0 c 0,3.211 0,3.801 -0.352,4.493 -0.379,0.769 -1.191,1.16 -2.019,1.16 -2.082,0 -2.883,-1.317 -2.883,-3.426 l 0,-10.207 c 0,-2.676 0,-5.172 2.91,-5.172 2.559,0 2.559,2.32 2.559,2.945 l 0,3.231 1.484,0 0,-3.231 c 0,-1.074 0,-4.308 -4.277,-4.308 -1.571,0 -2.559,0.625 -3.172,1.363 C 0.293,-14.305 0,-13.441 0,-11.371 L 0,0 Z" /></g><g
           transform="translate(163.6152,79.459)"
           id="g56"><path
             id="path58"
             style="fill:none;stroke:#ed2790;stroke-width:0.5;stroke-linecap:butt;stroke-linejoin:miter;stroke-miterlimit:4;stroke-dasharray:none;stroke-opacity:1"
             d="M 0,0 C 0,1.613 0,2.797 1.104,3.863 1.965,4.816 3.059,5.051 4.16,5.051 4.992,5.051 5.819,4.875 6.504,4.465 7.16,4.074 8.137,3.234 8.137,1.012 l 0,-2.942 -1.457,0 c 0,3.211 0,3.801 -0.352,4.493 -0.379,0.769 -1.191,1.16 -2.019,1.16 -2.082,0 -2.883,-1.317 -2.883,-3.426 l 0,-10.207 c 0,-2.676 0,-5.172 2.91,-5.172 2.559,0 2.559,2.32 2.559,2.945 l 0,3.231 1.484,0 0,-3.231 c 0,-1.074 0,-4.308 -4.277,-4.308 -1.571,0 -2.559,0.625 -3.172,1.363 C 0.293,-14.305 0,-13.441 0,-11.371 L 0,0 Z" /></g><g
           transform="translate(196.7402,84.2988)"
           id="g60"><path
             id="path62"
             style="fill:#ed2790;fill-opacity:1;fill-rule:nonzero;stroke:none"
             d="m 0,0 1.633,0 -4.453,-8.332 4.51,-12.629 -1.543,0 -3.866,10.871 -1.544,-2.902 0,-7.969 -1.425,0 0,20.961 1.454,0 0,-10.27 L 0,0 Z" /></g><g
           transform="translate(196.7402,84.2988)"
           id="g64"><path
             id="path66"
             style="fill:none;stroke:#ed2790;stroke-width:0.5;stroke-linecap:butt;stroke-linejoin:miter;stroke-miterlimit:4;stroke-dasharray:none;stroke-opacity:1"
             d="m 0,0 1.633,0 -4.453,-8.332 4.51,-12.629 -1.543,0 -3.866,10.871 -1.544,-2.902 0,-7.969 -1.425,0 0,20.961 1.454,0 0,-10.27 L 0,0 Z" /></g><g
           transform="translate(244.3574,84.334)"
           id="g68"><path
             id="path70"
             style="fill:#ed2790;fill-opacity:1;fill-rule:nonzero;stroke:none"
             d="m 0,0 0,-1.336 -3.738,0 0,-19.66 -1.457,0 0,19.66 -3.654,0 0,1.336 L 0,0 Z" /></g><g
           transform="translate(244.3574,84.334)"
           id="g72"><path
             id="path74"
             style="fill:none;stroke:#ed2790;stroke-width:0.5;stroke-linecap:butt;stroke-linejoin:miter;stroke-miterlimit:4;stroke-dasharray:none;stroke-opacity:1"
             d="m 0,0 0,-1.336 -3.738,0 0,-19.66 -1.457,0 0,19.66 -3.654,0 0,1.336 L 0,0 Z" /></g><g
           transform="translate(268.127,78.3965)"
           id="g76"><path
             id="path78"
             style="fill:#ed2790;fill-opacity:1;fill-rule:nonzero;stroke:none"
             d="M 0,0 C 0,1.602 -0.027,3.234 -0.859,4.094 -1.336,4.563 -2.07,4.836 -2.82,4.836 -3.621,4.836 -4.336,4.563 -4.805,4.094 -5.672,3.262 -5.672,1.957 -5.672,1.543 l 0,-11.551 c 0,-1.992 0.242,-2.844 1.133,-3.508 0.476,-0.32 1.062,-0.504 1.719,-0.504 0.535,0 1.015,0.122 1.394,0.368 1.281,0.714 1.426,2.043 1.426,3.437 L 0,0 Z m -7.059,1.25 c 0,1.633 0.262,2.578 0.731,3.262 0.812,1.156 2.14,1.629 3.594,1.629 1.339,0 2.648,-0.446 3.39,-1.539 C 1.398,3.496 1.398,2.074 1.398,0.801 l 0,-11.551 c 0,-0.859 -0.089,-1.984 -0.683,-2.879 -0.508,-0.766 -1.633,-1.691 -3.594,-1.691 -4.18,0 -4.18,3.445 -4.18,4.754 l 0,11.816 z" /></g><g
           transform="translate(268.127,78.3965)"
           id="g80"><path
             id="path82"
             style="fill:none;stroke:#ed2790;stroke-width:0.5;stroke-linecap:butt;stroke-linejoin:miter;stroke-miterlimit:4;stroke-dasharray:none;stroke-opacity:1"
             d="M 0,0 C 0,1.602 -0.027,3.234 -0.859,4.094 -1.336,4.563 -2.07,4.836 -2.82,4.836 -3.621,4.836 -4.336,4.563 -4.805,4.094 -5.672,3.262 -5.672,1.957 -5.672,1.543 l 0,-11.551 c 0,-1.992 0.242,-2.844 1.133,-3.508 0.476,-0.32 1.062,-0.504 1.719,-0.504 0.535,0 1.015,0.122 1.394,0.368 1.281,0.714 1.426,2.043 1.426,3.437 L 0,0 Z m -7.059,1.25 c 0,1.633 0.262,2.578 0.731,3.262 0.812,1.156 2.14,1.629 3.594,1.629 1.339,0 2.648,-0.446 3.39,-1.539 C 1.398,3.496 1.398,2.074 1.398,0.801 l 0,-11.551 c 0,-0.859 -0.089,-1.984 -0.683,-2.879 -0.508,-0.766 -1.633,-1.691 -3.594,-1.691 -4.18,0 -4.18,3.445 -4.18,4.754 l 0,11.816 z" /></g><g
           transform="translate(310.8809,74.002)"
           id="g84"><path
             id="path86"
             style="fill:#ed2790;fill-opacity:1;fill-rule:nonzero;stroke:none"
             d="m 0,0 0,-9.387 2.461,0 c 2.617,0 2.734,1.43 2.734,3.266 l 0,2.969 C 5.195,-1.695 4.902,0 1.516,0 L 0,0 Z m -0.027,9.051 0,-7.778 1.425,0 c 2.997,0 3.086,1.719 3.086,2.946 l 0,2.519 c 0,1.867 -0.714,2.313 -2.675,2.313 l -1.836,0 z m -1.426,1.281 3.769,0 c 1.309,0 3.622,0 3.622,-3.445 l 0,-3 C 5.938,1.391 4.758,1.016 3.449,0.715 6.055,0.324 6.652,-0.684 6.652,-3.176 l 0,-3.562 c 0,-1.895 -0.597,-3.926 -3.945,-3.926 l -4.16,0 0,20.996 z" /></g><g
           transform="translate(310.8809,74.002)"
           id="g88"><path
             id="path90"
             style="fill:none;stroke:#ed2790;stroke-width:0.5;stroke-linecap:butt;stroke-linejoin:miter;stroke-miterlimit:4;stroke-dasharray:none;stroke-opacity:1"
             d="m 0,0 0,-9.387 2.461,0 c 2.617,0 2.734,1.43 2.734,3.266 l 0,2.969 C 5.195,-1.695 4.902,0 1.516,0 L 0,0 Z m -0.027,9.051 0,-7.778 1.425,0 c 2.997,0 3.086,1.719 3.086,2.946 l 0,2.519 c 0,1.867 -0.714,2.313 -2.675,2.313 l -1.836,0 z m -1.426,1.281 3.769,0 c 1.309,0 3.622,0 3.622,-3.445 l 0,-3 C 5.938,1.391 4.758,1.016 3.449,0.715 6.055,0.324 6.652,-0.684 6.652,-3.176 l 0,-3.562 c 0,-1.895 -0.597,-3.926 -3.945,-3.926 l -4.16,0 0,20.996 z" /></g><g
           transform="translate(339.4551,80.7988)"
           id="g92"><path
             id="path94"
             style="fill:#ed2790;fill-opacity:1;fill-rule:nonzero;stroke:none"
             d="M 0,0 C -0.059,0.301 -0.176,1.223 -0.293,1.992 -0.32,1.691 -0.352,1.426 -0.379,1.133 -0.438,0.832 -0.469,0.508 -0.535,0.18 l -1.719,-9.887 3.887,0 L 0,0 Z m 0.715,3.621 3.797,-21.082 -1.543,0 -1.063,6.391 -4.394,0 -1.106,-6.391 -1.543,0 3.84,21.082 2.012,0 z" /></g><g
           transform="translate(339.4551,80.7988)"
           id="g96"><path
             id="path98"
             style="fill:none;stroke:#ed2790;stroke-width:0.5;stroke-linecap:butt;stroke-linejoin:miter;stroke-miterlimit:4;stroke-dasharray:none;stroke-opacity:1"
             d="M 0,0 C -0.059,0.301 -0.176,1.223 -0.293,1.992 -0.32,1.691 -0.352,1.426 -0.379,1.133 -0.438,0.832 -0.469,0.508 -0.535,0.18 l -1.719,-9.887 3.887,0 L 0,0 Z m 0.715,3.621 3.797,-21.082 -1.543,0 -1.063,6.391 -4.394,0 -1.106,-6.391 -1.543,0 3.84,21.082 2.012,0 z" /></g><g
           transform="translate(360.8535,79.459)"
           id="g100"><path
             id="path102"
             style="fill:#ed2790;fill-opacity:1;fill-rule:nonzero;stroke:none"
             d="M 0,0 C 0,1.613 0,2.797 1.094,3.863 1.953,4.816 3.055,5.051 4.16,5.051 4.988,5.051 5.809,4.875 6.504,4.465 7.148,4.074 8.133,3.234 8.133,1.012 l 0,-2.942 -1.453,0 c 0,3.211 0,3.801 -0.352,4.493 -0.39,0.769 -1.191,1.16 -2.023,1.16 -2.078,0 -2.879,-1.317 -2.879,-3.426 l 0,-10.207 c 0,-2.676 0,-5.172 2.91,-5.172 2.547,0 2.547,2.32 2.547,2.945 l 0,3.231 1.484,0 0,-3.231 c 0,-1.074 0,-4.308 -4.277,-4.308 -1.563,0 -2.547,0.625 -3.172,1.363 C 0.293,-14.305 0,-13.441 0,-11.371 L 0,0 Z" /></g><g
           transform="translate(360.8535,79.459)"
           id="g104"><path
             id="path106"
             style="fill:none;stroke:#ed2790;stroke-width:0.5;stroke-linecap:butt;stroke-linejoin:miter;stroke-miterlimit:4;stroke-dasharray:none;stroke-opacity:1"
             d="M 0,0 C 0,1.613 0,2.797 1.094,3.863 1.953,4.816 3.055,5.051 4.16,5.051 4.988,5.051 5.809,4.875 6.504,4.465 7.148,4.074 8.133,3.234 8.133,1.012 l 0,-2.942 -1.453,0 c 0,3.211 0,3.801 -0.352,4.493 -0.39,0.769 -1.191,1.16 -2.023,1.16 -2.078,0 -2.879,-1.317 -2.879,-3.426 l 0,-10.207 c 0,-2.676 0,-5.172 2.91,-5.172 2.547,0 2.547,2.32 2.547,2.945 l 0,3.231 1.484,0 0,-3.231 c 0,-1.074 0,-4.308 -4.277,-4.308 -1.563,0 -2.547,0.625 -3.172,1.363 C 0.293,-14.305 0,-13.441 0,-11.371 L 0,0 Z" /></g><g
           transform="translate(393.9668,84.2988)"
           id="g108"><path
             id="path110"
             style="fill:#ed2790;fill-opacity:1;fill-rule:nonzero;stroke:none"
             d="m 0,0 1.633,0 -4.453,-8.332 4.511,-12.629 -1.543,0 -3.859,10.871 -1.543,-2.902 0,-7.969 -1.426,0 0,20.961 1.457,0 0,-10.27 L 0,0 Z" /></g><g
           transform="translate(393.9668,84.2988)"
           id="g112"><path
             id="path114"
             style="fill:none;stroke:#ed2790;stroke-width:0.5;stroke-linecap:butt;stroke-linejoin:miter;stroke-miterlimit:4;stroke-dasharray:none;stroke-opacity:1"
             d="m 0,0 1.633,0 -4.453,-8.332 4.511,-12.629 -1.543,0 -3.859,10.871 -1.543,-2.902 0,-7.969 -1.426,0 0,20.961 1.457,0 0,-10.27 L 0,0 Z" /></g><g
           transform="translate(146.439,117.8174)"
           id="g116"><path
             id="path118"
             style="fill:#ed2790;fill-opacity:1;fill-rule:nonzero;stroke:none"
             d="m 0,0 c -0.207,1.328 -0.773,3.359 -3.145,4.758 -1.679,0.98 -4.472,1.828 -7.55,1.828 -2.723,0 -5.801,-0.637 -7.899,-2.031 C -20.625,3.227 -21.32,1.688 -22.023,0 L 0,0 Z m -22.375,-6.358 c 0.285,-1.11 0.918,-3.282 2.168,-4.75 2.453,-2.942 6.367,-4.055 10.137,-4.055 7.48,0 10.207,3.562 11.261,4.891 l 11.954,-1.188 c -5.176,-8.527 -13.84,-12.023 -23.77,-12.023 -6.016,0 -12.238,1.125 -16.914,4.964 -4.688,3.778 -6.652,9.442 -6.652,14.468 0,13.004 11.125,18.735 23.703,18.735 4.824,0 13.008,-1.043 18.386,-6.782 4.688,-4.961 4.758,-10.625 4.825,-14.26 l -35.098,0 z" /></g><g
           transform="translate(176.7129,113.5596)"
           id="g120"><path
             id="path122"
             style="fill:#ed2790;fill-opacity:1;fill-rule:nonzero;stroke:none"
             d="m 0,0 c 0,-4.116 1.883,-11.187 10.555,-11.187 4.961,0 10.975,2.516 10.975,11.187 0,5.805 -2.87,7.758 -3.913,8.461 C 15.448,9.922 12.44,10.625 9.715,10.492 3.496,10.141 0,5.521 0,0 m 21.315,31.598 11.33,0 0,-49.425 -11.33,0 0,4.269 c -0.69,-0.703 -1.463,-1.402 -2.233,-2.031 -2.453,-1.742 -6.642,-3.488 -11.75,-3.488 -11.043,0 -19.22,7.398 -19.22,18.725 0,11.118 8.107,19.016 19.154,19.016 3.006,0 5.73,-0.555 8.182,-1.469 2.931,-1.05 4.404,-2.234 5.867,-3.355 l 0,17.758 z" /></g><g
           transform="translate(231.2441,125.0283)"
           id="g124"><path
             id="path126"
             style="fill:#ed2790;fill-opacity:1;fill-rule:nonzero;stroke:none"
             d="m 0,0 c 1.668,2.656 4.539,7.059 14.813,7.266 l 0,-10.418 c -0.977,0.074 -1.817,0.144 -3.008,0.144 -0.977,0 -4.961,-0.07 -7.684,-1.547 C 0.555,-6.434 0,-9.164 0,-12.238 l 0,-17.058 -11.613,0 0,35.374 L 0,6.078 0,0 Z" /></g><g
           transform="translate(265.9121,111.3965)"
           id="g128"><path
             id="path130"
             style="fill:#737577;fill-opacity:1;fill-rule:nonzero;stroke:none"
             d="m 0,0 c -0.84,-0.211 -4.328,-0.977 -4.328,-4.406 0,-4.473 6.223,-4.539 7.687,-4.539 4.825,0 9.649,1.953 11.805,5.312 1.125,1.602 1.055,2.719 1.125,4.324 C 8.672,0.691 3.211,0.691 0,0 m 27.891,-11.328 c 0.144,-1.887 0.351,-2.656 1.609,-4.336 l -12.508,0 c -0.566,1.68 -0.637,2.801 -0.703,3.777 -3.781,-2.238 -7.902,-4.687 -15.801,-4.687 -2.793,0 -5.597,0.215 -8.242,0.976 -4.973,1.407 -8.743,5.106 -8.743,10.77 0,11.182 10.763,11.323 21.876,11.468 l 10.91,0 c 0.066,3.007 0.203,6.367 -9.922,6.367 -3.847,0 -8.469,-0.352 -9.375,-3.227 l -11.672,0 c 0.422,2.102 1.047,5.453 5.176,8.11 4.816,3.007 12.863,3.086 16.223,3.086 21.238,0 21.172,-8.258 21.172,-15.663 l 0,-16.641 z" /></g><g
           transform="translate(302.5137,131.1064)"
           id="g132"><path
             id="path134"
             style="fill:#737577;fill-opacity:1;fill-rule:nonzero;stroke:none"
             d="m 0,0 11.395,0 0,-5.035 c 1.816,1.894 5.871,6.082 15.597,6.082 8.524,0 12.363,-3.91 13.348,-5.031 3.078,-3.493 3.078,-7.977 3.144,-11.821 l 0,-19.635 -11.543,0.066 0,18.108 c 0,2.657 -0.125,5.942 -2.793,8.18 -1.179,0.977 -3.066,2.031 -6.992,2.031 -3.211,0 -5.73,-0.847 -7.195,-1.679 -3.215,-1.899 -3.566,-5.246 -3.566,-7.551 l 0,-19.089 L 0,-35.374 0,0 Z" /></g><g
           transform="translate(364.4941,107.7637)"
           id="g136"><path
             id="path138"
             style="fill:#737577;fill-opacity:1;fill-rule:nonzero;stroke:none"
             d="m 0,0 c 1.328,-4.621 5.949,-5.457 10.488,-5.457 2.102,0 4.121,0.066 6.086,0.769 0.555,0.204 2.586,0.907 2.586,2.864 0,2.449 -2.801,2.933 -8.113,3.637 C 8.254,2.16 5.449,2.305 2.656,2.656 -1.043,3.074 -10.41,4.188 -10.41,12.784 c 0,8.465 8.73,12.305 20.617,12.305 3.641,0 10.625,-0.277 15.867,-4.059 3.567,-2.586 4.406,-5.515 4.895,-7.195 L 19.016,13.062 c -1.047,2.523 -3.985,4.335 -9.504,4.335 -4.754,0 -8.047,-1.253 -8.047,-3.492 0,-1.467 1.398,-2.164 3.008,-2.523 2.101,-0.551 3.215,-0.617 13.215,-1.602 2.656,-0.281 5.664,-0.553 8.046,-1.75 3.418,-1.601 5.379,-4.819 5.379,-8.6 0,-3.008 -1.258,-5.868 -3.425,-7.828 -2.59,-2.375 -7.551,-4.883 -17.551,-4.883 -16.289,0 -20.899,6.004 -22.508,12.367 L 0,0 Z" /></g></g></g></g></svg>