<?xml version="1.0" standalone="no"?>
<!DOCTYPE svg PUBLIC "-//W3C//DTD SVG 1.1//EN" "http://www.w3.org/Graphics/SVG/1.1/DTD/svg11.dtd" >
<svg xmlns="http://www.w3.org/2000/svg">
<metadata></metadata>
<defs>
<font id="da_mad_raveregular" horiz-adv-x="2816" >
<font-face units-per-em="2048" ascent="2048" descent="0" />
<missing-glyph horiz-adv-x="1280" />
<glyph horiz-adv-x="0" />
<glyph horiz-adv-x="682" />
<glyph unicode=" "  horiz-adv-x="1280" />
<glyph unicode="&#x09;" horiz-adv-x="1280" />
<glyph unicode="&#xa0;" horiz-adv-x="1280" />
<glyph unicode="!" horiz-adv-x="768" d="M0 0v512h512v-512h-512zM0 768v1280h512v-1280h-512z" />
<glyph unicode="&#x22;" horiz-adv-x="1536" d="M0 1536v768h512v-768h-512zM768 1536v768h512v-768h-512z" />
<glyph unicode="#" d="M0 768v512h512v768h512v-768h512v768h512v-768h512v-512h-512v-768h-512v768h-512v-768h-512v768h-512z" />
<glyph unicode="$" d="M0 0v512h1024v256h-1024v1280h1024v256h512v-256h1024v-512h-1024v-256h1024v-1280h-1024v-256h-512v256h-1024zM512 1280h512v256h-512v-256zM1536 512h512v256h-512v-256z" />
<glyph unicode="%" d="M-128 0l2560 2560h768l-2560 -2560h-768zM0 1536v512h512v-512h-512zM2048 0v512h512v-512h-512z" />
<glyph unicode="&#x26;" d="M0 768v512h1024v768h512v-768h1024v-512h-1024v-768h-512v768h-1024z" />
<glyph unicode="'" horiz-adv-x="768" d="M0 1536v768h512v-768h-512z" />
<glyph unicode="(" horiz-adv-x="1792" d="M0 -512v3072h1536v-512h-1024v-2048h1024v-512h-1536z" />
<glyph unicode=")" horiz-adv-x="1792" d="M0 0h1024v2048h-1024v512h1536v-3072h-1536v512z" />
<glyph unicode="*" horiz-adv-x="1280" d="M0 1280v512h256v256h512v-256h256v-512h-256v-256h-512v256h-256z" />
<glyph unicode="+" horiz-adv-x="1792" d="M0 768v512h512v512h512v-512h512v-512h-512v-512h-512v512h-512z" />
<glyph unicode="," horiz-adv-x="768" d="M0 -256v768h512v-768h-512z" />
<glyph unicode="-" horiz-adv-x="1792" d="M0 768v512h1536v-512h-1536z" />
<glyph unicode="." horiz-adv-x="768" d="M0 0v512h512v-512h-512z" />
<glyph unicode="/" horiz-adv-x="2944" d="M-128 0l2560 2560h768l-2560 -2560h-768z" />
<glyph unicode="0" d="M0 0v2048h2560v-2048h-2560zM512 512h1536v1024h-1536v-1024z" />
<glyph unicode="1" horiz-adv-x="768" d="M0 0v2048h512v-2048h-512z" />
<glyph unicode="2" d="M0 0v1280h2048v256h-2048v512h2560v-1280h-2048v-256h2048v-512h-2560z" />
<glyph unicode="3" d="M0 0v512h2048v256h-2048v512h2048v256h-2048v512h2560v-2048h-2560z" />
<glyph unicode="4" d="M0 768v1280h512v-768h1536v768h512v-2048h-512v768h-2048z" />
<glyph unicode="5" d="M0 0v512h2048v256h-2048v1280h2560v-512h-2048v-256h2048v-1280h-2560z" />
<glyph unicode="6" d="M0 0v2048h2560v-512h-2048v-256h2048v-1280h-2560zM512 512h1536v256h-1536v-256z" />
<glyph unicode="7" d="M0 1536v512h2560l-1024 -2048h-640l768 1536h-1664z" />
<glyph unicode="8" d="M0 0v2048h2560v-2048h-2560zM512 512h1536v256h-1536v-256zM512 1280h1536v256h-1536v-256z" />
<glyph unicode="9" d="M0 0v512h2048v256h-2048v1280h2560v-2048h-2560zM512 1280h1536v256h-1536v-256z" />
<glyph unicode=":" horiz-adv-x="768" d="M0 256v512h512v-512h-512zM0 1280v512h512v-512h-512z" />
<glyph unicode=";" horiz-adv-x="768" d="M0 0v768h512v-768h-512zM0 1280v512h512v-512h-512z" />
<glyph unicode="&#x3c;" d="M0 1536v512h512v-512h-512zM2048 0v512h512v-512h-512z" />
<glyph unicode="=" horiz-adv-x="1792" d="M0 256v512h1536v-512h-1536zM0 1280v512h1536v-512h-1536z" />
<glyph unicode="&#x3e;" d="M0 0v512h512v-512h-512zM2048 1536v512h512v-512h-512z" />
<glyph unicode="?" d="M0 1536v512h2560v-1280h-1536v512h1024v256h-2048zM1024 0v512h512v-512h-512z" />
<glyph unicode="@" horiz-adv-x="3072" d="M0 0v2048h2816v-1280h-2048v512h1536v256h-1792v-1024h2304v-512h-2816z" />
<glyph unicode="A" d="M0 0v1536l512 512h2048v-2048h-512v768h-1536v-768h-512zM512 1280h1536v256h-1280z" />
<glyph unicode="B" d="M0 0v2048h2560v-2048h-2560zM512 512h1536v256h-1536v-256zM512 1280h1536v256h-1536v-256z" />
<glyph unicode="C" d="M0 0v2048h2560v-768h-512v256h-1536v-1024h1536v256h512v-768h-2560z" />
<glyph unicode="D" d="M0 0v2048h2048l512 -512v-1536h-2560zM512 512h1536v768l-256 256h-1280v-1024z" />
<glyph unicode="E" d="M0 0v2048h2560v-512h-2048v-256h2048v-512h-2048v-256h2048v-512h-2560z" />
<glyph unicode="F" d="M0 0v2048h2560v-512h-2048v-256h2048v-512h-2048v-768h-512z" />
<glyph unicode="G" d="M0 0v2048h2560v-512h-2048v-1024h1536v256h-512v512h1024v-1280h-2560z" />
<glyph unicode="H" d="M0 0v2048h512v-768h1536v768h512v-2048h-512v768h-1536v-768h-512z" />
<glyph unicode="I" horiz-adv-x="768" d="M0 0v2048h512v-2048h-512z" />
<glyph unicode="J" d="M0 0v1024h512v-512h1536v1536h512v-2048h-2560z" />
<glyph unicode="K" d="M0 0v2048h512v-768h640l896 768h768l-1152 -1024l1152 -1024h-768l-896 768h-640v-768h-512z" />
<glyph unicode="L" d="M0 0v2048h512v-1536h2048v-512h-2560z" />
<glyph unicode="M" d="M0 0v2048h2560v-2048h-512v1536h-512v-1536h-512v1536h-512v-1536h-512z" />
<glyph unicode="N" d="M0 0v2048h2560v-2048h-512v1536h-1536v-1536h-512z" />
<glyph unicode="O" d="M0 0v2048h2560v-2048h-2560zM512 512h1536v1024h-1536v-1024z" />
<glyph unicode="P" d="M0 0v2048h2560v-1280h-2048v-768h-512zM512 1280h1536v256h-1536v-256z" />
<glyph unicode="Q" horiz-adv-x="3328" d="M0 0v2048h2560v-768h512v-512h-512v-768h-2560zM512 512h1536v256h-512v512h512v256h-1536v-1024z" />
<glyph unicode="R" d="M0 0v2048h2560v-1280h-896l896 -768h-768l-896 768h-384v-768h-512zM512 1280h1536v256h-1536v-256z" />
<glyph unicode="S" d="M0 0v512h2048v256h-2048v1280h2560v-512h-2048v-256h2048v-1280h-2560z" />
<glyph unicode="T" d="M0 1536v512h2560v-512h-1024v-1536h-512v1536h-1024z" />
<glyph unicode="U" d="M0 0v2048h512v-1536h1536v1536h512v-2048h-2560z" />
<glyph unicode="V" horiz-adv-x="2560" d="M0 2048h576l704 -1408l698 1408h582l-1024 -2048h-512z" />
<glyph unicode="W" d="M0 0v2048h512v-1536h512v1536h512v-1536h512v1536h512v-2048h-2560z" />
<glyph unicode="X" d="M0 0l926 1024l-926 1024h708l572 -632l570 632h710l-924 -1026l924 -1022h-708l-570 630l-568 -630h-714z" />
<glyph unicode="Y" d="M0 2048h702l578 -640l570 640h710l-1024 -1152v-896h-512v896z" />
<glyph unicode="Z" d="M0 0v1280h2048v256h-2048v512h2560v-1280h-2048v-256h2048v-512h-2560z" />
<glyph unicode="[" horiz-adv-x="1280" d="M0 -512v3072h1024v-512h-512v-2048h512v-512h-1024z" />
<glyph unicode="\" horiz-adv-x="3328" d="M-128 2560h768l2560 -2560h-768z" />
<glyph unicode="]" horiz-adv-x="1280" d="M0 0h512v2048h-512v512h1024v-3072h-1024v512z" />
<glyph unicode="^" horiz-adv-x="1792" d="M0 1024v1024h1536v-1024h-512v512h-512v-512h-512z" />
<glyph unicode="_" d="M0 0v512h2560v-512h-2560z" />
<glyph unicode="`" horiz-adv-x="1280" d="M0 2048h640l384 -512h-640z" />
<glyph unicode="a" d="M0 0v1536l512 512h2048v-2048h-512v768h-1536v-768h-512zM512 1280h1536v256h-1280z" />
<glyph unicode="b" d="M0 0v2048h2560v-2048h-2560zM512 512h1536v256h-1536v-256zM512 1280h1536v256h-1536v-256z" />
<glyph unicode="c" d="M0 0v2048h2560v-768h-512v256h-1536v-1024h1536v256h512v-768h-2560z" />
<glyph unicode="d" d="M0 0v2048h2048l512 -512v-1536h-2560zM512 512h1536v768l-256 256h-1280v-1024z" />
<glyph unicode="e" d="M0 0v2048h2560v-512h-2048v-256h2048v-512h-2048v-256h2048v-512h-2560z" />
<glyph unicode="f" d="M0 0v2048h2560v-512h-2048v-256h2048v-512h-2048v-768h-512z" />
<glyph unicode="g" d="M0 0v2048h2560v-512h-2048v-1024h1536v256h-512v512h1024v-1280h-2560z" />
<glyph unicode="h" d="M0 0v2048h512v-768h1536v768h512v-2048h-512v768h-1536v-768h-512z" />
<glyph unicode="i" horiz-adv-x="768" d="M0 0v2048h512v-2048h-512z" />
<glyph unicode="j" d="M0 0v1024h512v-512h1536v1536h512v-2048h-2560z" />
<glyph unicode="k" d="M0 0v2048h512v-1280l1792 1792h768l-1616 -1616l1104 -944h-768l-682 598l-598 -598h-512z" />
<glyph unicode="l" d="M0 0v2048h512v-1536h2048v-512h-2560z" />
<glyph unicode="m" d="M0 0v2048h2560v-2048h-512v1536h-512v-1536h-512v1536h-512v-1536h-512z" />
<glyph unicode="n" d="M0 0v2048h2560v-2048h-512v1536h-1536v-1536h-512z" />
<glyph unicode="o" d="M0 0v2048h2560v-2048h-2560zM512 512h1536v1024h-1536v-1024z" />
<glyph unicode="p" d="M0 0v2048h2560v-1280h-2048v-768h-512zM512 1280h1536v256h-1536v-256z" />
<glyph unicode="q" horiz-adv-x="3328" d="M0 0v2048h2560v-768h512v-512h-512v-768h-2560zM512 512h1536v256h-512v512h512v256h-1536v-1024z" />
<glyph unicode="r" d="M0 0v2048h2560v-1280h-896l896 -768h-768l-896 768h-384v-768h-512zM512 1280h1536v256h-1536v-256z" />
<glyph unicode="s" d="M0 0v512h2048v256h-2048v1280h2560v-512h-2048v-256h2048v-1280h-2560z" />
<glyph unicode="t" d="M0 1536v512h2560v-512h-1024v-1536h-512v1536h-1024z" />
<glyph unicode="u" d="M0 0v2048h512v-1536h1536v1536h512v-2048h-2560z" />
<glyph unicode="v" d="M0 0v2048h512v-1280l1792 1792h768l-2560 -2560h-512z" />
<glyph unicode="w" d="M0 0v2048h512v-1536h512v1536h512v-1536h512v1536h512v-2048h-2560z" />
<glyph unicode="x" d="M-126 0l766 768l272 272l-912 1008h708l576 -636l1148 1148h768l-1552 -1552l912 -1008h-710l-574 636l-636 -636h-766z" />
<glyph unicode="y" d="M0 768h1024v-768h512v768h1024v1280h-512v-768h-1536v768h-512v-1280z" />
<glyph unicode="z" d="M0 0v512l1664 1024h-1664v512h2560v-512l-1664 -1024h1664v-512h-2560z" />
<glyph unicode="{" horiz-adv-x="1792" d="M0 768v512h512v1280h1024v-512h-512v-2048h512v-512h-1024v1280h-512z" />
<glyph unicode="|" horiz-adv-x="768" d="M0 -512v3072h512v-3072h-512z" />
<glyph unicode="}" horiz-adv-x="1792" d="M0 0h512v2048h-512v512h1024v-1280h512v-512h-512v-1280h-1024v512z" />
<glyph unicode="~" horiz-adv-x="1792" d="M0 768v512h512v512h1024v-512h-512v-512h-1024z" />
<glyph unicode="&#xad;" horiz-adv-x="1792" d="M0 768v512h1536v-512h-1536z" />
<glyph unicode="&#x2000;" horiz-adv-x="1280" />
<glyph unicode="&#x2001;" horiz-adv-x="2560" />
<glyph unicode="&#x2002;" horiz-adv-x="1280" />
<glyph unicode="&#x2003;" horiz-adv-x="2560" />
<glyph unicode="&#x2004;" horiz-adv-x="853" />
<glyph unicode="&#x2005;" horiz-adv-x="640" />
<glyph unicode="&#x2006;" horiz-adv-x="426" />
<glyph unicode="&#x2007;" horiz-adv-x="426" />
<glyph unicode="&#x2008;" horiz-adv-x="320" />
<glyph unicode="&#x2009;" horiz-adv-x="512" />
<glyph unicode="&#x200a;" horiz-adv-x="142" />
<glyph unicode="&#x2010;" horiz-adv-x="1792" d="M0 768v512h1536v-512h-1536z" />
<glyph unicode="&#x2011;" horiz-adv-x="1792" d="M0 768v512h1536v-512h-1536z" />
<glyph unicode="&#x2012;" horiz-adv-x="1792" d="M0 768v512h1536v-512h-1536z" />
<glyph unicode="&#x2013;" horiz-adv-x="1280" d="M0 768v512h1024v-512h-1024z" />
<glyph unicode="&#x2014;" horiz-adv-x="2304" d="M0 768v512h2048v-512h-2048z" />
<glyph unicode="&#x2018;" horiz-adv-x="768" d="M0 1536v768h512v-768h-512z" />
<glyph unicode="&#x2019;" horiz-adv-x="768" d="M0 1536v768h512v-768h-512z" />
<glyph unicode="&#x201c;" horiz-adv-x="1536" d="M0 1536v768h512v-768h-512zM768 1536v768h512v-768h-512z" />
<glyph unicode="&#x201d;" horiz-adv-x="1536" d="M0 1536v768h512v-768h-512zM768 1536v768h512v-768h-512z" />
<glyph unicode="&#x202f;" horiz-adv-x="512" />
<glyph unicode="&#x205f;" horiz-adv-x="640" />
<glyph unicode="&#x25fc;" horiz-adv-x="2560" d="M0 0v2560h2560v-2560h-2560z" />
</font>
</defs>
</svg>
